<?xml version="1.0" standalone="no"?>
<!DOCTYPE svg PUBLIC "-//W3C//DTD SVG 20010904//EN" "http://www.w3.org/TR/2001/REC-SVG-20010904/DTD/svg10.dtd">
<svg version="1.0" xmlns="http://www.w3.org/2000/svg" viewBox="0 0 512 512" preserveAspectRatio="xMidYMid meet">
<rect x="0" y="0" width="512" height="512" fill="#79b851" />
 <g transform="translate(0.000000,512.000000) scale(0.100000,-0.100000)" fill="#ffffff" stroke="none">
  <path d="M1127 3170 c-71 -25 -124 -58 -183 -112 l-44 -41 0 77 0 76 -195 0 -195 0 0 -600 0 -600 195 0 195 0 0 384 c0 377 0 384 22 412 67 89 133 142 201 158 39 9 107 -11 140 -42 53 -50 57 -88 57 -519 l0 -393 195 0 195 0 0 188 0 187 38 -68 c51 -94 109 -157 197 -216 114 -76 208 -103 375 -108 169 -6 251 10 377 72 191 94 289 226 330 445 l8 44 125 -282 125 -282 95 0 95 0 140 306 c77 168 143 307 146 309 3 2 69 -134 146 -303 l141 -307 98 -2 99 -3 259 591 c142 326 261 600 264 611 4 18 -4 18 -194 16 l-199 -3 -117 -309 c-64 -169 -118 -310 -120 -311 -2 -2 -60 137 -129 308 l-126 312 -120 3 -121 3 -121 -303 c-67 -167 -125 -308 -129 -314 -4 -7 -61 129 -127 302 l-120 314 -197 0 c-131 0 -198 -4 -198 -10 0 -6 9 -29 20 -50 11 -22 18 -40 16 -40 -3 0 -26 13 -53 30 -26 16 -84 42 -128 57 -76 26 -89 28 -250 28 -158 0 -175 -2 -246 -27 -166 -58 -296 -165 -362 -296 l-35 -70 -12 61 c-26 136 -104 238 -227 299 -62 30 -76 33 -178 36 -90 2 -120 -1 -168 -18z m1344 -247 c98 -50 140 -156 140 -353 -1 -233 -64 -351 -205 -380 -100 -21 -202 21 -250 102 -68 116 -78 367 -21 504 57 136 206 192 336 127z"/>
 </g>
</svg>